<svg width="43" height="44" viewBox="0 0 43 44" fill="none" xmlns="http://www.w3.org/2000/svg">
<mask id="mask0_12_174" style="mask-type:alpha" maskUnits="userSpaceOnUse" x="0" y="0" width="43" height="44">
<rect width="42.5" height="43.4286" fill="#D9D9D9"/>
</mask>
<g mask="url(#mask0_12_174)">
<path d="M37.4822 40.7142L23.965 26.8313C22.8889 27.7438 21.6514 28.4579 20.2525 28.9737C18.8536 29.4894 17.4064 29.7473 15.911 29.7473C12.2326 29.7473 9.11951 28.4393 6.5717 25.8235C4.0239 23.2076 2.75 20.0111 2.75 16.2341C2.75 12.4574 4.02354 9.25985 6.57063 6.64138C9.11771 4.02328 12.2301 2.71423 15.9078 2.71423C19.5851 2.71423 22.6986 4.02254 25.2482 6.63917C27.7974 9.25579 29.072 12.453 29.072 16.2308C29.072 17.8093 28.8141 19.3169 28.2983 20.7536C27.7822 22.1903 27.0937 23.4398 26.2328 24.5022L39.75 38.3846L37.4822 40.7142ZM15.911 26.4324C18.6841 26.4324 21.0328 25.444 22.9572 23.4673C24.882 21.4909 25.8443 19.0787 25.8443 16.2308C25.8443 13.3828 24.882 10.9706 22.9572 8.99424C21.0328 7.0175 18.6841 6.02913 15.911 6.02913C13.138 6.02913 10.7892 7.0175 8.86484 8.99424C6.94008 10.9706 5.97771 13.3828 5.97771 16.2308C5.97771 19.0787 6.94008 21.4909 8.86484 23.4673C10.7892 25.444 13.138 26.4324 15.911 26.4324Z" fill="#1C1B1F"/>
</g>
</svg>
