<svg width="48" height="50" viewBox="0 0 48 50" fill="none" xmlns="http://www.w3.org/2000/svg">
<path d="M29.7533 48.034L30.8286 40.8239L34.2966 38.8435L41.2329 41.468C41.4555 41.5995 41.7024 41.6853 41.9591 41.7205C42.2157 41.7556 42.4768 41.7393 42.727 41.6725C42.9772 41.6058 43.2113 41.4899 43.4156 41.3317C43.6199 41.1736 43.7902 40.9763 43.9163 40.7518L47.7379 34.2386C47.9979 33.7897 48.0679 33.2568 47.9326 32.7567C47.7973 32.2567 47.4678 31.8302 47.0162 31.5708L41.2523 26.9035V23.2792L47.0162 18.4195C47.4674 18.1611 47.7969 17.7355 47.9322 17.2362C48.0675 16.7369 47.9976 16.2048 47.7379 15.7566L43.9163 9.2434C43.6558 8.79563 43.2269 8.46873 42.7238 8.33445C42.2207 8.20017 41.6845 8.26949 41.2329 8.5272L34.2772 11.1469L31.2548 9.39241C30.7575 6.91212 30.257 4.43345 29.7533 1.95636C29.7539 1.69967 29.7034 1.44539 29.6049 1.20806C29.5063 0.97073 29.3616 0.755025 29.1789 0.573297C28.9962 0.39157 28.7793 0.247384 28.5403 0.149009C28.3014 0.0506337 28.0454 -7.78602e-07 27.7867 0H20.2014C19.6794 0.00127279 19.1792 0.207927 18.8106 0.574676C18.4419 0.941426 18.2349 1.43833 18.2349 1.95636L17.1111 9.20013L13.6285 11.195L6.76008 8.5272C6.30769 8.26926 5.77077 8.19982 5.26688 8.33407C4.76298 8.46832 4.33329 8.7953 4.07191 9.2434L0.269551 15.7422C0.140121 15.9636 0.0559431 16.2083 0.0219257 16.4621C-0.0120916 16.7159 0.00476671 16.9739 0.0713562 17.2212C0.137946 17.4686 0.253009 17.7005 0.410038 17.9036C0.567066 18.1068 0.76292 18.2772 0.986411 18.4051L6.75038 23.0773V26.7016L0.986411 31.5564C0.761298 31.6853 0.56412 31.857 0.406135 32.0618C0.248151 32.2665 0.13254 32.5003 0.0659165 32.7496C-0.000706843 32.9988 -0.0170513 33.2587 0.0179051 33.5143C0.0528615 33.7698 0.138377 34.016 0.269551 34.2386L4.06222 40.7566C4.19118 40.9789 4.36303 41.1739 4.56799 41.3302C4.77295 41.4866 5.00702 41.6013 5.25671 41.6678C5.50639 41.7344 5.7668 41.7514 6.02312 41.7179C6.27943 41.6844 6.52654 41.6011 6.75038 41.4728L13.9143 38.9877L17.053 40.7998C17.4469 43.2128 17.8377 45.629 18.2252 48.0484C18.2252 48.566 18.4323 49.0624 18.8011 49.4284C19.1699 49.7944 19.6701 50 20.1917 50H27.777C28.0373 50.0013 28.2952 49.9512 28.5359 49.8528C28.7765 49.7544 28.9952 49.6096 29.179 49.4267C29.3629 49.2439 29.5082 49.0266 29.6068 48.7875C29.7053 48.5484 29.7552 48.2923 29.7533 48.034ZM14.3454 24.9615C14.3492 23.069 14.9181 21.22 15.9802 19.6482C17.0423 18.0763 18.5501 16.852 20.3129 16.13C22.0757 15.4079 24.0146 15.2205 25.8847 15.5913C27.7548 15.9622 29.4722 16.8747 30.8201 18.2136C32.1679 19.5525 33.0857 21.2577 33.4575 23.1139C33.8293 24.9702 33.6385 26.8941 32.9091 28.6427C32.1798 30.3914 30.9446 31.8864 29.3596 32.9388C27.7746 33.9912 25.9108 34.5539 24.0037 34.5558C22.7357 34.5577 21.4796 34.3114 20.3076 33.831C19.1355 33.3506 18.0706 32.6456 17.1735 31.7562C16.2764 30.8668 15.5647 29.8106 15.0794 28.648C14.5941 27.4854 14.3448 26.2392 14.3454 24.9808V24.9615Z" fill="#EAEAEA"/>
</svg>
